<svg xmlns="http://www.w3.org/2000/svg" viewBox="0 0 24 24" xmlns:v="https://vecta.io/nano">
    <path fill="#fff"
        d="M13.163 12.574c0 .759-.621 1.38-1.38 1.38s-1.38-.621-1.38-1.38.621-1.38 1.38-1.38 1.38.621 1.38 1.38M10.402 8.71c-1.587.552-2.76 2.071-2.76 3.865 0 2.277 1.864 4.14 4.141 4.14s4.14-1.864 4.14-4.141c0-1.794-1.174-3.312-2.761-3.864V6.363h2.76v-2.76h-2.76v-2.07h-2.76zm-5.474 3.704c-.084 1.584.084 7.068-4.728 9.732.492.336.96.78 1.212 1.152 2.544-1.56 3.816-3.888 4.464-6.06.684 2.232 2.028 4.704 4.752 6.06.228-.396.66-.888 1.116-1.224-4.464-2.088-5.088-7.2-5.196-8.916l.036-.744zm12 0c-.084 1.584.084 7.068-4.728 9.732.492.336.96.78 1.212 1.152 2.544-1.56 3.816-3.888 4.464-6.06.684 2.232 2.028 4.704 4.752 6.06.228-.396.66-.888 1.116-1.224-4.464-2.088-5.088-7.2-5.196-8.916l.036-.744z" />
</svg>